<svg xmlns="http://www.w3.org/2000/svg" xml:space="preserve" viewBox="0 0 512.003 512.003"><path d="M8.536 450.798a27.23 27.23 0 0 1 3.499-13.312L232.536 48.281a27.74 27.74 0 0 1 24.235-14.165 28.08 28.08 0 0 1 24.32 14.165l218.88 389.291a26.6 26.6 0 0 1 3.499 13.227c0 14.942-12.109 27.051-27.051 27.051H35.587c-14.934-.001-27.051-12.11-27.051-27.052" style="fill:#fdb62f"/><path d="M499.971 437.571 361.389 191.129a541.8 541.8 0 0 1-249.173 286.72h364.203c14.942 0 27.051-12.109 27.051-27.051a26.53 26.53 0 0 0-3.499-13.227" style="fill:#ffa230"/><path d="M196.269 349.849h-17.067v25.6h-14.933l14.933-66.389-17.067-3.755-17.067 76.8a8.55 8.55 0 0 0 1.707 7.253 8.52 8.52 0 0 0 6.827 3.157h25.6v17.067h17.067v-17.067h8.533v-17.067h-8.533zM256.003 307.182c-18.85 0-34.133 15.283-34.133 34.133v34.133c0 18.85 15.283 34.133 34.133 34.133s34.133-15.283 34.133-34.133v-34.133c0-18.85-15.283-34.133-34.133-34.133m17.066 68.267c0 9.429-7.637 17.067-17.067 17.067s-17.067-7.637-17.067-17.067v-34.133c0-9.429 7.637-17.067 17.067-17.067s17.067 7.637 17.067 17.067zM366.936 375.449h-8.533v-25.6h-17.067v25.6h-14.933l14.933-66.389-17.067-3.755-17.067 76.8a8.55 8.55 0 0 0 1.707 7.253 8.52 8.52 0 0 0 6.827 3.157h25.6v17.067h17.067v-17.067h8.533zM247.469 145.049h17.067v85.333h-17.067zM247.469 247.449h17.067v17.067h-17.067z" style="fill:#de4c3c"/><path d="M288.515 44.099c-9.924-17.51-32.154-23.654-49.664-13.739a36.44 36.44 0 0 0-13.739 13.739L4.611 433.305a36.16 36.16 0 0 0-4.608 17.067c-.239 19.652 15.505 35.772 35.157 36.011h441.259c19.601.051 35.541-15.804 35.584-35.413a35.45 35.45 0 0 0-4.608-17.579zm187.904 425.216H35.587c-10.223-.017-18.5-8.32-18.492-18.543a18.56 18.56 0 0 1 2.364-9.02L239.96 52.462c5.222-9.284 16.981-12.578 26.266-7.356a19.27 19.27 0 0 1 7.356 7.356l218.965 389.291c4.992 8.926 1.809 20.207-7.108 25.199a18.56 18.56 0 0 1-9.02 2.363"/><path d="M196.269 349.849h-17.067v25.6h-14.933l14.933-66.389-17.067-3.755-17.067 76.8a8.55 8.55 0 0 0 1.707 7.253 8.52 8.52 0 0 0 6.827 3.157h25.6v17.067h17.067v-17.067h8.533v-17.067h-8.533zM256.003 307.182c-18.85 0-34.133 15.283-34.133 34.133v34.133c0 18.85 15.283 34.133 34.133 34.133s34.133-15.283 34.133-34.133v-34.133c0-18.85-15.283-34.133-34.133-34.133m17.066 68.267c0 9.429-7.637 17.067-17.067 17.067s-17.067-7.637-17.067-17.067v-34.133c0-9.429 7.637-17.067 17.067-17.067s17.067 7.637 17.067 17.067zM358.403 349.849h-17.067v25.6h-14.933l14.933-66.389-17.067-3.755-17.067 76.8a8.55 8.55 0 0 0 1.707 7.253 8.52 8.52 0 0 0 6.827 3.157h25.6v17.067h17.067v-17.067h8.533v-17.067h-8.533zM247.469 145.049h17.067v85.333h-17.067zM247.469 247.449h17.067v17.067h-17.067z"/></svg>