<svg xmlns="http://www.w3.org/2000/svg" width="512" height="512"><path fill="#4fabf7" d="M446.662 426.814C487.283 381.504 512 321.642 512 256 512 114.615 397.385 0 256 0S0 114.615 0 256c0 65.642 24.717 125.504 65.338 170.814z"/><circle cx="256" cy="256" r="170" fill="#1e9ef4"/><path fill="#2a428c" d="M417 364c-22-19.425-117.305-35.119-117.305-35.119h-87.39S117 344.575 95 364c-9.048 7.989-19.954 34.439-29.662 62.814 34.544 38.532 80.599 66.517 132.752 78.583h115.821c52.153-12.066 98.208-40.052 132.752-78.583C436.954 398.439 426.048 371.989 417 364"/><path fill="#1c2e7a" d="M198.089 505.397h115.88a254.5 254.5 0 0 0 73.711-29.83 258 258 0 0 1-27.06 1.432c-96.1 0-179.817-52.962-223.596-131.281C118.907 351.041 102.59 357.298 95 364c-9.048 7.989-19.954 34.439-29.662 62.814 34.544 38.532 80.599 66.517 132.751 78.583"/><path fill="#4b6bb2" d="M367.641 408.162C355.978 349.78 317.786 283.358 256 283.358s-99.978 66.422-111.641 124.804c-2.07 10.362 4.282 20.545 14.496 23.252l1.805.478a20 20 0 0 1 13.522 12.1l23.811 61.384v.022a255 255 0 0 0 26.304 4.635h63.407a255 255 0 0 0 26.304-4.635v-.022l23.811-61.384a20 20 0 0 1 13.523-12.1l1.805-.478c10.213-2.707 16.564-12.891 14.494-23.252"/><path fill="#3c58a0" d="m174.182 443.991 23.811 61.384v.022a254 254 0 0 0 26.283 4.635h8.058V497c-48-72-47.333-149.333-34.341-165.539H256v-48.104c-61.786 0-99.978 66.422-111.641 124.804-2.07 10.362 4.282 20.545 14.496 23.252l1.805.478a20 20 0 0 1 13.522 12.1"/><path fill="#d3dcfb" d="M299.695 328.881h-87.39s-5.569.918-14.312 2.58l24.92 100.364a50 50 0 0 1 1.474 12.049v65.617L256 493.383l31.614 16.65v-66.158c0-4.062.495-8.107 1.474-12.049l24.92-100.364c-8.744-1.663-14.313-2.581-14.313-2.581"/><path fill="#ff4155" d="M287.614 510.033v-.541l-16.761-101.21L256 385.728l-14.852 22.554-16.761 101.21v.541C234.747 511.315 245.292 512 256 512s21.253-.685 31.614-1.967"/><path fill="#ff7186" d="M271.632 411.728h-31.265a5 5 0 0 1-4.84-3.744L223 359.728h66l-12.528 48.256a5 5 0 0 1-4.84 3.744"/><path fill="#ff4155" d="M255.528 407.984 243 359.728h-20l12.528 48.257a5 5 0 0 0 4.84 3.743h20a5 5 0 0 1-4.84-3.744"/><path fill="#fd995b" d="M325.075 183.668s8.897-21.662 24.756-16.633-.383 51.97-31.332 54.928zM186.925 183.668s-8.897-21.662-24.756-16.633.383 51.97 31.332 54.928z"/><path fill="#fcad6d" d="M212.305 216.812v112.07c0 17.036 19.563 30.846 43.695 30.846s43.695-13.81 43.695-30.846v-112.07z"/><path fill="#fd995b" d="M212.305 216.812v112.07c46.932 0 73.247-36.019 73.247-36.019l14.143-76.05z"/><path fill="#f9ba8f" d="M337.249 173.222c0 59.83-36.377 129.999-81.249 129.999s-81.249-70.169-81.249-129.999S211.127 70.372 256 70.372s81.249 43.019 81.249 102.85"/><path fill="#fcad6d" d="M202.691 173.222c0-53.479 29.064-93.521 67.279-101.421A69 69 0 0 0 256 70.373c-44.873 0-81.249 43.019-81.249 102.849S211.128 303.221 256 303.221c4.764 0 9.431-.798 13.97-2.284-38.215-12.506-67.279-74.237-67.279-127.715"/><path fill="#112360" d="M236.617 206.285a5.001 5.001 0 0 1-2.678-9.226c6.646-4.205 14.275-6.427 22.063-6.427 7.786 0 15.412 2.22 22.054 6.421a5 5 0 0 1-5.345 8.452c-5.04-3.188-10.818-4.873-16.708-4.873-5.892 0-11.672 1.687-16.716 4.878a5 5 0 0 1-2.67.775"/><circle cx="216.462" cy="196.134" r="25" fill="#1c2e7a"/><circle cx="295.538" cy="196.134" r="25" fill="#1c2e7a"/><path fill="#3c58a0" d="M282.641 13.333c-15.148 0-19.172 27.726-26.641 27.726s-11.493-27.726-26.641-27.726S162.214 94.792 163.074 161h185.852c.86-66.208-51.137-147.667-66.285-147.667"/><path fill="#2a428c" d="M344.441 122.852c-94.849 6.518-155.655-57.33-139.41-85.617C185.25 66.328 162.503 117.023 163.074 161h185.852c.161-12.393-1.53-25.321-4.485-38.148"/><path fill="#4b6bb2" d="M389.203 150.173a12.54 12.54 0 0 1-8.984 12.018c-19.835 5.879-69.938 18.915-124.219 18.915s-104.384-13.036-124.219-18.915a12.54 12.54 0 0 1-8.984-12.018c0-6.92 5.61-12.53 12.53-12.53h241.346c6.92 0 12.53 5.61 12.53 12.53"/><path fill="#fff" d="M212.305 315 256 359.728s-17 30.744-28 30.744-30.007-59.011-30.007-59.011zM299.695 315 256 359.728s17 30.744 28 30.744 30.007-59.011 30.007-59.011z"/><path fill="#112360" d="m399.18 436.247-11.516 39.331a257 257 0 0 0 21.314-14.296v-23.629c0-5.78-8.174-6.953-9.798-1.406M103.022 437.651v23.629a256 256 0 0 0 21.314 14.296l-11.516-39.331c-1.624-5.545-9.798-4.372-9.798 1.406"/><path fill="#3c58a0" d="M234.269 159.374c0-12.002 9.729-21.731 21.731-21.731H135.327c-6.92 0-12.53 5.61-12.53 12.53a12.54 12.54 0 0 0 8.984 12.018c19.835 5.879 69.938 18.915 124.219 18.915-12.002-.001-21.731-9.73-21.731-21.732"/></svg>