<svg xmlns="http://www.w3.org/2000/svg" width="600" height="300"><defs><linearGradient id="b" x1="24.565%" x2="83.238%" y1="22.02%" y2="86.518%"><stop offset="0%" stop-color="#FFA936"/><stop offset="41.12%" stop-color="#FF8548"/><stop offset="77.81%" stop-color="#FF6C54"/><stop offset="100%" stop-color="#FF6359"/></linearGradient><linearGradient id="c" x1="52.164%" x2="48.183%" y1="47.311%" y2="50.515%"><stop offset="0%" stop-color="#F82814" stop-opacity="0"/><stop offset="100%" stop-color="#C0272D"/></linearGradient><linearGradient id="d" x1="17.693%" x2="92.209%" y1="30.221%" y2="75.839%"><stop offset="0%" stop-color="#CDEC7A"/><stop offset="21.57%" stop-color="#B0E995"/><stop offset="56.13%" stop-color="#87E4BB"/><stop offset="83.47%" stop-color="#6EE1D2"/><stop offset="100%" stop-color="#65E0DB"/></linearGradient><linearGradient id="e" x1="64.844%" x2="-13.932%" y1="50%" y2="50%"><stop offset="0%" stop-color="#CDEC7A" stop-opacity="0"/><stop offset="23.54%" stop-color="#9AD57D" stop-opacity=".235"/><stop offset="60.35%" stop-color="#51B482" stop-opacity=".604"/><stop offset="86.79%" stop-color="#239F85" stop-opacity=".868"/><stop offset="100%" stop-color="#119786"/></linearGradient><linearGradient id="f" x1="50%" x2="50%" y1="55.566%" y2="-9.612%"><stop offset="0%" stop-color="#CDEC7A" stop-opacity="0"/><stop offset="23.54%" stop-color="#9AD57D" stop-opacity=".235"/><stop offset="60.35%" stop-color="#51B482" stop-opacity=".604"/><stop offset="86.79%" stop-color="#239F85" stop-opacity=".868"/><stop offset="100%" stop-color="#119786"/></linearGradient><linearGradient id="g" x1="19.121%" x2="90.315%" y1="23.61%" y2="84.454%"><stop offset="0%" stop-color="#F8F6FB"/><stop offset="100%" stop-color="#EFDCFB"/></linearGradient><linearGradient id="h" x1="19.511%" x2="102.476%" y1="16.101%" y2="108.347%"><stop offset="0%" stop-color="#18CEFB"/><stop offset="29.69%" stop-color="#2BB9F9"/><stop offset="73.45%" stop-color="#42A0F7"/><stop offset="100%" stop-color="#4A97F6"/></linearGradient><linearGradient id="i" x1="17.508%" x2="82.493%" y1="41.26%" y2="98.189%"><stop offset="0%" stop-color="#CDEC7A"/><stop offset="21.54%" stop-color="#B0E995" stop-opacity=".784"/><stop offset="56.04%" stop-color="#87E4BB" stop-opacity=".439"/><stop offset="83.34%" stop-color="#6EE1D2" stop-opacity=".165"/><stop offset="99.85%" stop-color="#65E0DB" stop-opacity="0"/></linearGradient><linearGradient id="j" x1="31.46%" x2="83.27%" y1="46.627%" y2="93.32%"><stop offset="0%" stop-color="#CDEC7A"/><stop offset="21.57%" stop-color="#B0E995"/><stop offset="56.13%" stop-color="#87E4BB"/><stop offset="83.47%" stop-color="#6EE1D2"/><stop offset="100%" stop-color="#65E0DB"/></linearGradient><linearGradient id="k" x1="25.157%" x2="92.757%" y1="17.681%" y2="105.629%"><stop offset="0%" stop-color="#FFD945"/><stop offset="30.43%" stop-color="#FFCD3E"/><stop offset="85.58%" stop-color="#FFAD2B"/><stop offset="100%" stop-color="#FFA325"/></linearGradient><filter id="a" width="214.6%" height="228.3%" x="-57.3%" y="-64.2%" filterUnits="objectBoundingBox"><feOffset dy="8" in="SourceAlpha" result="shadowOffsetOuter1"/><feGaussianBlur in="shadowOffsetOuter1" result="shadowBlurOuter1" stdDeviation="16"/><feColorMatrix in="shadowBlurOuter1" result="shadowMatrixOuter1" values="0 0 0 0 0 0 0 0 0 0 0 0 0 0 0 0 0 0 0.1 0"/><feMerge><feMergeNode in="shadowMatrixOuter1"/><feMergeNode in="SourceGraphic"/></feMerge></filter></defs><g fill="none" fill-rule="evenodd"><path fill="#F2F2F2" d="M0 0h600v300H0z"/><g fill-rule="nonzero" filter="url(#a)" transform="translate(233 90)"><path fill="url(#b)" d="M111.6 116.203 10.468 104.995a8.86 8.86 0 0 1-7.828-9.78l9.295-83.868a8.86 8.86 0 0 1 9.78-7.828l101.13 11.208a8.86 8.86 0 0 1 7.828 9.78l-9.295 83.868a8.857 8.857 0 0 1-9.78 7.828"/><path fill="url(#c)" d="m130.674 24.507-3.665 33.076-8.146-43.297 3.984.441c4.861.538 8.365 4.916 7.827 9.78"/><path fill="url(#d)" d="m126.093 100.624-99.995 18.811a8.86 8.86 0 0 1-10.343-7.067L.155 29.44a8.86 8.86 0 0 1 7.067-10.343L107.217.286a8.86 8.86 0 0 1 10.343 7.068l15.6 82.927a8.86 8.86 0 0 1-7.067 10.343"/><path fill="url(#e)" d="M119.695 18.702v83.126l6.398-1.204a8.86 8.86 0 0 0 7.067-10.343z"/><path fill="url(#f)" d="m15.279 109.838.476 2.53a8.86 8.86 0 0 0 10.343 7.067l51.019-9.597z"/><g transform="translate(0 8.103)"><path fill="url(#g)" d="M110.837 102.251H9.087A8.86 8.86 0 0 1 .23 93.394V9.012A8.86 8.86 0 0 1 9.088.154h101.749a8.86 8.86 0 0 1 8.858 8.858v84.382a8.86 8.86 0 0 1-8.858 8.857"/><path fill="url(#h)" d="M102.542 93.928h-85.16a7.414 7.414 0 0 1-7.413-7.413V15.89a7.414 7.414 0 0 1 7.413-7.414h85.16a7.414 7.414 0 0 1 7.414 7.414v70.624a7.414 7.414 0 0 1-7.414 7.413"/><path fill="url(#i)" d="M55.958 58.64H7.45a7.414 7.414 0 0 1-7.415-7.414V39.65l12.307-14.96c4.061-4.941 11.622-4.941 15.686 0l7.663 9.316z" transform="translate(9.933 35.29)"/><path fill="url(#j)" d="M100.023 32.61v18.616a7.414 7.414 0 0 1-7.415 7.413H15.424l20.267-24.634L60.588 3.74C64.65-1.2 72.213-1.2 76.275 3.74z" transform="translate(9.933 35.29)"/><circle cx="35.871" cy="26.38" r="10.513" fill="url(#k)"/></g></g></g></svg>