<svg xmlns="http://www.w3.org/2000/svg" width="512" height="512" viewBox="0 0 512.001 512.001"><path fill="#f07281" d="m308.933 401.317 38.592-38.658 9.903-2.665 32.243 120.332-52.884-16.809-37.39 41.001-30.527-113.897z"/><path fill="#fee45a" d="m362.595 379.268-4.728 1.267-42.957 43.027-40.075-10.704-5.965-22.237 40.064 10.694 38.588-38.657 9.906-2.664z"/><path fill="#eb5569" d="m311.069 399.181 19.164 71.518-30.836 33.819-30.527-113.897 40.064 10.694z"/><path fill="#f07281" d="m164.746 362.815 38.659 38.593 39.686-10.667-30.487 113.777-37.39-41.001-52.884 16.809 32.223-120.232z"/><path fill="#fee45a" d="m243.091 390.741-5.965 22.256-39.665 10.675-43.027-42.957-5.048-1.347 5.167-19.274 10.196 2.724 38.657 38.587z"/><g fill="#eb5569"><path d="m195.485 393.494-19.114 71.3-1.157-1.277-52.884 16.809 32.223-120.232 10.196 2.724zM362.595 379.268l-4.728 1.267-42.957 43.027-40.075-10.704-5.965-22.237 40.064 10.694 38.588-38.657 9.906-2.664z"/><path d="m243.091 390.741-5.965 22.256-39.665 10.675-43.027-42.957-5.048-1.347 5.167-19.274 10.196 2.724 38.657 38.587z"/></g><path fill="#fdb441" d="m400.277 348.476-52.752 14.183-38.592 38.658-52.776-14.092-52.752 14.183-38.659-38.593-52.776-14.093-14.183-52.752-38.658-38.592 14.092-52.776-14.183-52.752 38.593-38.659 14.093-52.776 52.752-14.183 38.592-38.658 52.776 14.092 52.752-14.183 38.659 38.593 52.776 14.093 14.183 52.752 38.658 38.592-14.092 52.776 14.183 52.752L414.37 295.7z"/><circle cx="256.001" cy="204.445" r="149.642" fill="#fee97d"/><path fill="#fee45a" d="M290.917 349.988a149.7 149.7 0 0 1-34.916 4.1c-82.642 0-149.642-67-149.642-149.642s67-149.642 149.642-149.642c12.021 0 23.713 1.417 34.916 4.1-65.802 15.722-114.725 74.921-114.725 145.542-.001 70.622 48.922 129.82 114.725 145.542"/><path fill="#8ac9fe" d="M201.112 165.729v131.835h-62.251c-20.351-25.559-32.502-57.921-32.502-93.117 0-13.388 1.756-26.367 5.058-38.717h89.695z"/><path fill="#8ac9fe" d="M201.112 165.729v131.835h-62.251c-20.351-25.559-32.502-57.921-32.502-93.117 0-13.388 1.756-26.367 5.058-38.717h89.695z"/><path fill="#fff3de" d="M316.219 262.809h7.674c8.476 0 15.348 6.871 15.348 15.348s-6.871 15.348-15.348 15.348h-82.317c-4.145 0-8.157-1.404-11.447-3.927-8.677-6.653-17.858-8.062-29.018-8.725v-97.595c26.245-29.987 59.504-32.804 57.177-77.614-.403-7.754 5.776-14.264 13.541-14.264 5.939 0 11.219 3.855 12.952 9.535 7.044 23.088 8.806 46.003-.494 69.809h56.127c8.476 0 15.348 6.871 15.348 15.348s-6.871 15.348-15.348 15.348h-19.093 13.896c8.476 0 15.348 6.871 15.348 15.348s-6.871 15.348-15.348 15.348h-13.896 8.794c8.476 0 15.348 6.871 15.348 15.348s-6.871 15.348-15.348 15.348h-13.896z"/><path fill="#f1b0a2" d="M316.219 262.809h7.674c8.476 0 15.348 6.871 15.348 15.348s-6.871 15.348-15.348 15.348h-82.317c-4.145 0-8.157-1.404-11.447-3.927-8.677-6.653-17.858-8.062-29.018-8.725v-97.595c26.245-29.987 59.504-32.804 57.177-77.614-.403-7.754 5.776-14.264 13.541-14.264 5.939 0 11.219 3.855 12.952 9.535 7.044 23.088 8.806 46.003-.494 69.809h56.127c8.476 0 15.348 6.871 15.348 15.348s-6.871 15.348-15.348 15.348h-19.093 13.896c8.476 0 15.348 6.871 15.348 15.348s-6.871 15.348-15.348 15.348h-13.896 8.794c8.476 0 15.348 6.871 15.348 15.348s-6.871 15.348-15.348 15.348h-13.896z"/><path fill="#eb9c8d" d="M290.443 143.483c-10.215 11.907-25.734 19.698-40.117 33.798-3.602 3.531-5.659 8.347-5.659 13.391v73.647c0 8.674 5.865 16.35 14.302 18.365 6.868 1.64 13.079 4.706 19.161 10.819h-36.555c-4.144 0-8.155-1.403-11.444-3.924-8.677-6.651-17.86-8.061-29.018-8.725v-97.593c26.263-30.009 59.551-32.809 57.168-77.713-.404-7.715 5.818-14.168 13.545-14.168 2.968 0 5.78.964 8.058 2.638a13.38 13.38 0 0 1 4.897 6.894c4.324 14.174 6.657 28.279 5.662 42.571"/><path d="m460.194 255.094-13.659-50.809 13.572-50.829a7.5 7.5 0 0 0-1.947-7.243l-37.238-37.17-13.658-50.809a7.5 7.5 0 0 0-5.309-5.299l-50.828-13.572-37.239-37.171a7.5 7.5 0 0 0-7.245-1.934l-50.81 13.658L205.005.345a7.5 7.5 0 0 0-7.243 1.948L160.593 39.53l-50.81 13.659a7.5 7.5 0 0 0-5.299 5.308l-13.572 50.829-37.17 37.238a7.5 7.5 0 0 0-1.936 7.246l13.659 50.8-8.412 31.508a7.5 7.5 0 0 0 5.312 9.181 7.5 7.5 0 0 0 9.181-5.312l8.931-33.45a7.5 7.5 0 0 0-.003-3.882l-13.057-48.559 35.53-35.595a7.5 7.5 0 0 0 1.938-3.363L117.86 66.55l48.568-13.056a7.5 7.5 0 0 0 3.361-1.944l35.53-35.595 48.586 12.973c1.271.34 2.61.338 3.882-.003l48.569-13.056L341.951 51.4a7.5 7.5 0 0 0 3.363 1.938l48.587 12.973 13.056 48.568a7.5 7.5 0 0 0 1.944 3.361l35.596 35.531-12.974 48.586a7.5 7.5 0 0 0 .003 3.882l13.057 48.569-35.531 35.596a7.5 7.5 0 0 0-1.938 3.363l-12.974 48.586-48.566 13.055a7.5 7.5 0 0 0-3.363 1.945l-35.53 35.595-48.582-12.981a7.5 7.5 0 0 0-3.889.003l-48.566 13.065-35.595-35.531a7.5 7.5 0 0 0-3.364-1.938l-10.164-2.716q-.01-.004-.02-.006l-.021-.005-38.38-10.255-13.057-48.559a7.5 7.5 0 0 0-1.945-3.361l-25.29-25.24a7.5 7.5 0 0 0-10.606.011 7.5 7.5 0 0 0 .011 10.606l23.867 23.82 13.658 50.798a7.5 7.5 0 0 0 5.307 5.298l35.328 9.44-30.277 112.972a7.5 7.5 0 0 0 9.516 9.089l48.302-15.354 34.151 37.45a7.5 7.5 0 0 0 12.786-3.113l29.367-109.597 6.949-1.869 6.58 1.758 29.399 109.708a7.501 7.501 0 0 0 12.786 3.113l34.153-37.451 48.303 15.355a7.5 7.5 0 0 0 9.516-9.089l-12.16-45.38a7.501 7.501 0 0 0-14.489 3.883l8.611 32.138-39.814-12.657a7.5 7.5 0 0 0-7.814 2.094l-28.152 30.871-23.613-88.114 27.521 7.353a7.5 7.5 0 0 0 7.244-1.948l37.169-37.237.711-.191 9.378 35.01a7.5 7.5 0 0 0 9.184 5.305 7.5 7.5 0 0 0 5.304-9.185l-9.382-35.023 35.614-9.574a7.5 7.5 0 0 0 5.299-5.308l13.572-50.829 37.171-37.238a7.5 7.5 0 0 0 1.936-7.245M208.911 489.317l-28.149-30.869a7.5 7.5 0 0 0-7.814-2.094l-39.814 12.655 26.731-99.741 1.011.27 37.237 37.17a7.5 7.5 0 0 0 7.246 1.935l27.125-7.296z"/><path d="M256.001 62.321c20.851 0 40.932 4.409 59.685 13.104a7.5 7.5 0 0 0 9.959-3.649 7.5 7.5 0 0 0-3.648-9.959c-20.746-9.619-42.949-14.496-65.995-14.496-70.964 0-133.31 47.756-151.732 116.171l-.02.071-.065.232a157.6 157.6 0 0 0-5.313 40.656c0 35.934 11.803 69.747 34.131 97.779l.045.055.067.082C163.121 340 207.9 361.581 256.001 361.581c86.642 0 157.13-70.488 157.13-157.13 0-46.874-20.706-90.955-56.808-120.94a7.5 7.5 0 0 0-9.584 11.54c32.66 27.126 51.392 67.001 51.392 109.401 0 78.371-63.759 142.13-142.13 142.13-38.084 0-73.867-14.957-100.405-41.52h45.52a7.5 7.5 0 0 0 7.5-7.5v-8.501c6.745.909 11.962 2.642 16.952 6.467 4.604 3.53 10.29 5.474 16.009 5.474h82.312c12.598 0 22.847-10.249 22.847-22.847 0-4.417-1.26-8.546-3.439-12.045 5.842-4.143 9.661-10.958 9.661-18.648 0-4.656-1.4-8.991-3.801-12.607 5.411-4.182 8.902-10.734 8.902-18.086a22.7 22.7 0 0 0-3.77-12.558c5.447-4.179 8.966-10.754 8.966-18.135 0-12.598-10.249-22.847-22.847-22.847h-45.734c5.466-19.88 4.552-40.654-2.721-64.492-2.709-8.88-10.796-14.846-20.125-14.846a21.15 21.15 0 0 0-15.271 6.559 21.15 21.15 0 0 0-5.76 15.594c1.373 26.422-10.367 35.184-28.139 48.446-4.464 3.331-9.239 6.899-14.055 10.999-.132-4.026-3.429-7.252-7.488-7.252h-79.56c19.534-56.942 73.471-95.916 134.446-95.916M231.629 166.51c18.48-13.792 35.937-26.818 34.148-61.245a6 6 0 0 1 1.657-4.488 6 6 0 0 1 4.393-1.887c2.644 0 5.02 1.736 5.777 4.223 7.492 24.555 7.395 45.173-.306 64.887a7.502 7.502 0 0 0 6.986 10.228h56.122c4.327 0 7.847 3.52 7.847 7.847s-3.52 7.847-7.847 7.847h-19.091c-4.143 0-7.5 3.358-7.5 7.5s3.357 7.5 7.5 7.5h13.895c4.326 0 7.847 3.52 7.847 7.846s-3.521 7.847-7.847 7.847h-13.895c-4.143 0-7.5 3.358-7.5 7.5s3.357 7.5 7.5 7.5h8.793c4.327 0 7.847 3.52 7.847 7.847s-3.52 7.847-7.847 7.847h-13.896c-4.143 0-7.5 3.358-7.5 7.5s3.357 7.5 7.5 7.5h7.674c4.327 0 7.847 3.52 7.847 7.847s-3.52 7.847-7.847 7.847h-82.312c-2.438 0-4.883-.845-6.883-2.378-8.494-6.514-17.398-8.721-26.078-9.683v-87.794c7.388-7.968 15.322-13.895 23.016-19.638m-38.013 18.474-.001.019v97.588l.001.019v7.45h-51.069c-18.771-24.785-28.676-54.305-28.676-85.61 0-10.545 1.169-21.018 3.453-31.215h76.292z"/></svg>