<svg xmlns="http://www.w3.org/2000/svg" xml:space="preserve" viewBox="0 0 512 512"><path d="M365.397 156.629c-23.829-68.181-95.658-113.962-178.73-113.962C83.733 42.667 0 114.432 0 202.667A150.57 150.57 0 0 0 65.835 324.48l-22.037 44.075c-2.685 5.244-.611 11.671 4.633 14.356a10.67 10.67 0 0 0 10.3-.319l56.448-32.277a212.6 212.6 0 0 0 47.339 10.837c5.852.674 11.143-3.523 11.818-9.375a10.7 10.7 0 0 0-.212-3.659 123.7 123.7 0 0 1-3.456-28.117c0-82.325 81.344-149.333 181.333-149.333l3.136.149a11.26 11.26 0 0 0 8.832-4.416 10.67 10.67 0 0 0 1.428-9.772" style="fill:#4caf50"/><path d="M117.333 106.667c-17.673 0-32 14.327-32 32s14.327 32 32 32 32-14.327 32-32-14.327-32-32-32M245.333 106.667c-17.673 0-32 14.327-32 32s14.327 32 32 32 32-14.327 32-32-14.327-32-32-32" style="fill:#fafafa"/><path d="M512 320c0-70.592-71.765-128-160-128s-160 57.408-160 128 71.765 128 160 128a197 197 0 0 0 49.067-6.229l52.885 26.432c5.268 2.637 11.676.505 14.313-4.763a10.67 10.67 0 0 0 .364-8.741l-14.485-36.267A120.3 120.3 0 0 0 512 320" style="fill:#4caf50"/><path d="M298.667 256c-11.782 0-21.333 9.551-21.333 21.333s9.551 21.333 21.333 21.333S320 289.115 320 277.333 310.449 256 298.667 256M405.333 256C393.551 256 384 265.551 384 277.333s9.551 21.333 21.333 21.333 21.333-9.551 21.333-21.333c.001-11.782-9.551-21.333-21.333-21.333" style="fill:#fafafa"/></svg>